<svg xmlns="http://www.w3.org/2000/svg" version="1.1" viewBox="-5.0 -10.0 110.0 135.0">
 <path d="m11.648 35.812v-19.637c0-0.69141-0.56641-1.2578-1.2578-1.2578h-3.75c-0.69141 0-1.2578 0.56641-1.2578 1.2578v19.637c0 0.69141 0.56641 1.2578 1.2578 1.2578h3.75c0.69141 0 1.2578-0.56641 1.2578-1.2578zm9.0898 21.832c-2.7734 9.4102-0.91016 17.793 6.2266 23.566 2.7188 2.1992 5.9883 3.8203 9.4844 4.8516 0.76172 0.22266 1.1953 1.0234 0.97266 1.7812-0.22266 0.76172-1.0234 1.1953-1.7812 0.97266-8.2109-2.4141-15.414-7.8555-18-16.309-3.3828-11.059 2.2148-23.316 9.8945-33.633-1.543 0.625-3.1602 0.56641-4.6367-0.22266l-6.6055-3.5234h-1.7656v0.69141c0 2.2812-1.8555 4.1367-4.1367 4.1367h-3.75c-2.2812 0-4.1367-1.8555-4.1367-4.1367v-19.637c0-2.2812 1.8594-4.1367 4.1367-4.1367h3.75c2.2812 0 4.1367 1.8555 4.1367 4.1367v16.082h2.1016c0.23438-0.003906 0.47266 0.050781 0.69531 0.16797l6.9219 3.6953c0.69141 0.36719 1.4336 0.40234 2.1641 0.10547l14.227-5.7695c0.16406-0.066406 0.34766-0.10547 0.53906-0.10547l7.6523-0.003906c3.0547 0 3.0859-5.0664 0-5.0664h-15.609c-0.79297 0-1.4336-0.64453-1.4336-1.4336 0-0.78906 0.64062-1.4336 1.4336-1.4336h2.6367c-0.86328-1.7891-1.9844-4.3125-2.9453-6.8633l-14.391 3.8086c-0.76562 0.20312-1.5508-0.25781-1.7539-1.0234-0.19922-0.76562 0.25781-1.5508 1.0234-1.7539l14.176-3.7539c-0.85156-2.6875-2.543-8.6367 1.4336-9.0078 0.76953-0.070313 1.6992 0.15234 2.8164 0.74609 5.2188 2.7578 12.73-0.24609 18.867-1.793 3.0703-0.77734 4.6172 0.19531 5.1367 2.2461 1.0664 4.2305-5.0469 14.52-7.6914 18.895 1.457 1.5469 1.8281 3.9531 1.125 5.9258l4.8555 4.7891c1.918 1.8906 5.4883-1.8516 3.5391-3.7734l-6.1797-6.0938c-0.56641-0.55469-0.57422-1.4648-0.015626-2.0312 0.55469-0.56641 1.4648-0.57422 2.0312-0.015625l6.1836 6.0938c1.7148 1.6914 1.7656 3.832 0.90625 5.6484-0.74219 1.5781-2.1953 2.8867-3.875 3.3828 7.1016 9.2148 12.941 20.172 11.941 30.465h8.8164c0.79688 0 1.4375 0.64453 1.4375 1.4414s-0.64453 1.4375-1.4375 1.4375h-9.3672c-0.4375 0-0.76172 0.13672-1.0586 0.45312l-13.457 14.156c-1.7773 1.9805 1.3867 4.6641 3.4453 2.7617l9.7344-8.9961c0.57812-0.53516 1.4844-0.5 2.0234 0.078125 0.53516 0.57812 0.50391 1.4844-0.078125 2.0234l-9.7344 8.9961c-2.457 2.2695-5.8477 1.6602-7.6641-0.54687h-13.27c-1.8125 0-2.3633 1.9297-1.8555 3.2695 0.26562 0.69922 0.88281 1.25 1.8555 1.25l30.777-0.007813c0.44531 0 0.78516-0.14844 1.0859-0.48047l7.8047-8.6016c0.26562-0.32812 0.66797-0.53516 1.1211-0.53516h2.2695v-16.73c0-2.2812 1.8594-4.1367 4.1406-4.1367h3.75c2.2812 0 4.1367 1.8594 4.1367 4.1367v19.637c0 2.2812-1.8555 4.1367-4.1367 4.1367h-3.75c-2.2852 0-4.1406-1.8477-4.1406-4.168h-1.6328l-7.4336 8.1914c-0.83984 0.92578-1.9609 1.418-3.2109 1.418l-30.777 0.007812c-4.0352 0-5.7109-4.0664-4.5391-7.1445 0.56641-1.4922 1.7539-2.7109 3.5508-3.0352 0.66016-0.20703 0.48828-0.11328 1.0195-0.085938h12.105c-0.046874-1.1094 0.34375-2.3438 1.3203-3.4102l13.461-14.16c0.22266-0.23047 0.45703-0.4375 0.71094-0.60938 0.60938-4.0586 0.003906-8.8516-2.2266-14.383-2.1562-5.3438-5.8242-11.355-11.367-18.031l-4.4844-4.4258c-0.80859 0.625-1.8555 1.0039-3.1406 1.0039h-7.3633l-8.5586 3.4727-0.76562 0.9375c-6.0742 7.5039-9.6836 14.18-11.402 20.02zm36.691-51.938c-0.082032-0.32812-0.56641-0.42578-1.6484-0.15234-1.1875 0.30078-2.2852 0.60547-3.3828 0.91406-6.0234 1.6836-12.234 3.4258-17.52 0.63281-0.60156-0.32031-1-0.44922-1.2227-0.42969-0.089844 0.007813 0.11719 0.085937 0.097656 0.24609-0.082031 0.71484 0.066406 1.7578 0.35938 2.9766 1.0195 4.2422 3.6875 10.102 4.9414 12.516l9.7734-0.007812c0.42188 0 0.81641 0.039062 1.1875 0.11719 2.4453-4.0352 8.2031-13.672 7.4141-16.809zm-5.8672 46.266c-0.79688-2.5625-3.1016-4.3711-5.7461-4.8477v-2.2109c0-0.79687-0.64453-1.4375-1.4375-1.4375-0.79688 0-1.4375 0.64453-1.4375 1.4375v2.2109c-1.4609 0.26172-2.7695 0.91406-3.7891 1.8359-4.3203 3.8945-2.0625 10.613 3.7891 11.668v7.9336c-1.3672-0.39062-2.5508-1.3672-2.9883-2.707-0.24609-0.75391-1.0547-1.168-1.8086-0.92188-0.75391 0.24609-1.168 1.0547-0.92188 1.8086 0.82031 2.5156 3.1094 4.2969 5.7188 4.7656v2.2148c0 0.79688 0.64453 1.4375 1.4375 1.4375 0.79297 0 1.4375-0.64453 1.4375-1.4375v-2.2148c1.4609-0.26172 2.7695-0.91406 3.793-1.8359 4.3203-3.8906 2.0625-10.613-3.793-11.664v-7.9336c1.3828 0.39453 2.5781 1.3945 3.0039 2.7539 0.23438 0.75781 1.043 1.1797 1.8008 0.94531 0.75781-0.23438 1.1797-1.0391 0.94531-1.8008zm-5.7461 8.9844v7.6055c3.1719-0.90625 4.2539-4.4336 1.8672-6.582-0.51562-0.46484-1.1523-0.81641-1.8672-1.0234zm-2.8789-3.2773v-7.6055c-3.1719 0.90625-4.25 4.4336-1.8672 6.582 0.51563 0.46484 1.1523 0.81641 1.8672 1.0234zm51.684 30.234v-19.637c0-0.69141-0.56641-1.2578-1.2578-1.2578h-3.75c-0.69141 0-1.2617 0.56641-1.2617 1.2578v19.637c0 0.69141 0.56641 1.2578 1.2617 1.2578h3.75c0.69141 0 1.2578-0.56641 1.2578-1.2578z" fill-rule="evenodd"/>
<text x="0.0" y="117.5" font-size="5.0" font-weight="bold" font-family="Arbeit Regular, Helvetica, Arial-Unicode, Arial, Sans-serif" fill="#000000">Created by Rusma Ratri Handini</text><text x="0.0" y="122.5" font-size="5.0" font-weight="bold" font-family="Arbeit Regular, Helvetica, Arial-Unicode, Arial, Sans-serif" fill="#000000">from Noun Project</text></svg>